<svg width="24" height="17" viewBox="0 0 24 17" fill="none" xmlns="http://www.w3.org/2000/svg">
<path d="M8.00156 16.4818H0.4125C0.182813 16.4818 0 16.2943 0 16.0693V1.17239C0 0.942698 0.1875 0.759888 0.4125 0.759888H7.99688V16.4818H8.00156Z" fill="#484848"/>
<path d="M16.0032 0.759888H8.00159V16.4864H16.0032V0.759888Z" fill="#828282"/>
<path d="M23.5875 16.4818H15.9984V0.759888H23.5828C23.8125 0.759888 23.9953 0.947388 23.9953 1.17239V16.0693C24 16.2989 23.8125 16.4818 23.5875 16.4818Z" fill="#9B9B9B"/>
<path d="M13.0781 9.4315H10.9219L11.0391 9.1924H12.9609L13.0781 9.4315Z" fill="#F5F5F5"/>
<path d="M13.0781 7.5096H10.9219L11.0391 7.7534H12.9609L13.0781 7.5096Z" fill="#F5F5F5"/>
<path d="M12.6 7.6315H11.4L11.639 7.3925H12.3609L12.6 7.6315Z" fill="#F5F5F5"/>
<path d="M11.4 8.8315H11.0391V9.0705H11.4V8.8315Z" fill="#F5F5F5"/>
<path d="M11.4 8.4706H11.0391V8.7096H11.4V8.4706Z" fill="#F5F5F5"/>
<path d="M11.4 7.8705H11.0391V8.1096H11.4V7.8705Z" fill="#F5F5F5"/>
<path d="M11.4 8.23151H11.0391V8.35341H11.4V8.23151Z" fill="#F5F5F5"/>
<path d="M12.9609 8.8315H12.6V9.0705H12.9609V8.8315Z" fill="#F5F5F5"/>
<path d="M12.9609 8.4706H12.6V8.7096H12.9609V8.4706Z" fill="#F5F5F5"/>
<path d="M12.9609 7.8705H12.6V8.1096H12.9609V7.8705Z" fill="#F5F5F5"/>
<path d="M12.9609 8.23151H12.6V8.35341H12.9609V8.23151Z" fill="#F5F5F5"/>
<path d="M11.4 6.90961H11.1609V7.38771H11.4V6.90961Z" fill="#F5F5F5"/>
<path d="M11.4 6.79251H11.1609V6.67061C11.1609 6.60501 11.2125 6.54871 11.2828 6.54871C11.3485 6.54871 11.4047 6.60031 11.4047 6.67061V6.79251H11.4Z" fill="#F5F5F5"/>
<path d="M12.839 6.90961H12.6V7.38771H12.839V6.90961Z" fill="#F5F5F5"/>
<path d="M12.839 6.79251H12.6V6.67061C12.6 6.60501 12.6515 6.54871 12.7218 6.54871C12.7875 6.54871 12.8437 6.60031 12.8437 6.67061V6.79251H12.839Z" fill="#F5F5F5"/>
<path d="M12 7.8705C11.7328 7.8705 11.5219 8.0862 11.5219 8.3487V9.0705H12.4828V8.3487C12.4781 8.0862 12.2672 7.8705 12 7.8705Z" fill="#F5F5F5"/>
<path d="M11.2078 8.6299L10.5562 7.8659C10.5609 7.8518 10.5656 7.8424 10.5656 7.8284C10.5656 7.7627 10.514 7.7065 10.4437 7.7065C10.3734 7.7065 10.3218 7.758 10.3218 7.8284C10.3218 7.8987 10.3734 7.9502 10.4437 7.9502C10.4531 7.9502 10.4578 7.9455 10.4625 7.9455L10.5281 8.0252L10.2 8.7893L10.5609 9.1502L10.8703 8.4237L11.114 8.7096L11.2078 8.6299ZM10.6218 8.8784L10.3359 8.5924L10.4671 8.2877L10.7531 8.5737L10.6218 8.8784Z" fill="#F5F5F5"/>
<path d="M12.8906 8.7049L13.1344 8.419L13.4437 9.1455L13.8047 8.7846L13.4766 8.0205L13.5422 7.9408C13.5469 7.9408 13.5562 7.9455 13.5609 7.9455C13.6266 7.9455 13.6828 7.894 13.6828 7.8237C13.6828 7.7533 13.6312 7.7018 13.5609 7.7018C13.4906 7.7018 13.4391 7.7533 13.4391 7.8237C13.4391 7.8377 13.4437 7.8518 13.4484 7.8612L12.7969 8.6299L12.8906 8.7049ZM13.2516 8.5783L13.5375 8.2924L13.6688 8.5971L13.3828 8.883L13.2516 8.5783Z" fill="#F5F5F5"/>
<path d="M12.1359 6.694C12.0984 6.6846 12.0656 6.6612 12.0422 6.6283C12.0281 6.6049 12.014 6.5815 12 6.5533C11.9859 6.5815 11.9719 6.6096 11.9578 6.6283C11.9344 6.6612 11.9015 6.6799 11.864 6.694C11.6672 6.7502 11.5219 6.933 11.5219 7.1534C11.5219 7.1955 11.5265 7.233 11.5406 7.2752H12.4687C12.4781 7.2377 12.4875 7.1955 12.4875 7.1534C12.4781 6.933 12.3328 6.7502 12.1359 6.694Z" fill="#F5F5F5"/>
<path d="M9.24844 8.4565C9.24375 8.3815 9.23906 8.3065 9.23906 8.2315C9.23906 8.0768 9.25312 7.9268 9.27656 7.7768C9.30937 7.8002 9.34687 7.8284 9.38437 7.8565C9.36562 7.9784 9.35625 8.1049 9.35625 8.2315C9.35625 8.3205 9.36094 8.4096 9.37031 8.494L9.62344 8.569C9.60938 8.4565 9.59531 8.344 9.59531 8.2315C9.59531 8.1752 9.6 8.119 9.60469 8.0627C9.73594 8.208 9.84375 8.3862 9.84375 8.583C9.84375 8.5877 10.2281 8.0112 9.52969 7.3784L9.525 7.6502L9.12188 7.6455C9.08438 7.6455 9.05156 7.669 9.04688 7.7065C9.01406 7.8799 9 8.0534 9 8.2362C9 8.2877 9 8.3393 9.00469 8.3862L9.24844 8.4565Z" fill="#F5F5F5"/>
<path d="M10.3172 6.0472C10.3688 6.005 10.3781 5.92996 10.3406 5.8784C10.2984 5.82684 10.2234 5.81746 10.1719 5.85496C9.62813 6.2722 9.25781 6.8487 9.09375 7.4956L9.34219 7.5003C9.49219 6.9284 9.82969 6.4222 10.3172 6.0472Z" fill="#F5F5F5"/>
<path d="M10.1531 6.3471C9.89063 6.6049 9.69375 6.9049 9.5625 7.2284C9.6375 7.2893 9.69844 7.35019 9.75 7.41119C9.87188 7.07839 10.0641 6.77369 10.3266 6.51589C10.3734 6.46899 10.3734 6.394 10.3266 6.3471C10.2797 6.3002 10.2 6.3002 10.1531 6.3471Z" fill="#F5F5F5"/>
<path d="M9.73592 9.8065C9.5578 9.5534 9.42186 9.2628 9.33749 8.9581L9.47811 9.0096C9.56717 9.2909 9.69842 9.5534 9.86717 9.7831L10.1297 9.7362C9.97967 9.5487 9.8578 9.3424 9.76874 9.1174L9.92342 9.1737C10.0125 9.3706 10.125 9.5487 10.2656 9.7081L10.5422 9.6565C10.4344 9.544 10.3406 9.4221 10.2562 9.2862L10.0969 8.9674C10.0453 8.869 9.96092 8.794 9.85311 8.7612L9.47342 8.6487L9.38436 8.6206L9.2578 8.5831L9.00936 8.5081L8.87811 8.4659L8.96249 8.7143C8.98124 8.7706 9.01874 8.8128 9.06561 8.8456C9.14061 9.2065 9.28124 9.5487 9.47811 9.8487L9.73592 9.8065Z" fill="#F5F5F5"/>
<path d="M14.4749 7.6455L14.4702 7.3737C13.7718 8.0065 14.1562 8.583 14.1562 8.5783C14.1562 8.3815 14.2593 8.2033 14.3952 8.058C14.3999 8.1143 14.4046 8.1705 14.4046 8.2268C14.4046 8.344 14.3952 8.4565 14.3765 8.5643L14.6296 8.4893C14.639 8.4049 14.6437 8.3158 14.6437 8.2268C14.6437 8.1002 14.6343 7.9737 14.6156 7.8518C14.6531 7.8237 14.6906 7.7955 14.7234 7.7721C14.7468 7.9221 14.7609 8.0721 14.7609 8.2268C14.7609 8.3018 14.7562 8.3768 14.7515 8.4518L14.9999 8.3768C15.0046 8.3252 15.0046 8.2737 15.0046 8.2268C15.0046 8.0487 14.9859 7.8705 14.9577 7.6971C14.9531 7.6596 14.9202 7.6362 14.8827 7.6362L14.4749 7.6455Z" fill="#F5F5F5"/>
<path d="M14.6625 7.5003L14.911 7.4956C14.7516 6.8487 14.3766 6.2721 13.8328 5.85495C13.7813 5.81277 13.7063 5.82214 13.6641 5.87839C13.6219 5.92995 13.6313 6.005 13.6875 6.0471C14.1703 6.4221 14.5078 6.9284 14.6625 7.5003Z" fill="#F5F5F5"/>
<path d="M14.4375 7.2284C14.3015 6.9002 14.1047 6.6002 13.8469 6.3471C13.8 6.3002 13.725 6.3002 13.6781 6.3471C13.6312 6.394 13.6312 6.46899 13.6781 6.51589C13.9406 6.77369 14.1328 7.07839 14.2547 7.41119C14.3015 7.35019 14.3625 7.2893 14.4375 7.2284Z" fill="#F5F5F5"/>
<path d="M14.9859 8.5127L14.7375 8.5877L14.6109 8.62521L14.5219 8.65331L14.1422 8.76581C14.0344 8.79871 13.95 8.87371 13.8984 8.97211L13.7391 9.2908C13.6594 9.4268 13.5609 9.5487 13.4531 9.6612L13.7297 9.7127C13.8656 9.5533 13.9828 9.3705 14.0719 9.1783L14.2266 9.1221C14.1375 9.3471 14.0156 9.5533 13.8656 9.7408L14.1281 9.7877C14.2969 9.5533 14.4281 9.29551 14.5172 9.01431L14.6578 8.9627C14.5734 9.2721 14.4375 9.558 14.2594 9.8112L14.5172 9.858C14.7094 9.558 14.8547 9.21581 14.9297 8.85491C14.9766 8.82681 15.0141 8.7799 15.0328 8.7237L15.1172 8.4752L14.9859 8.5127Z" fill="#F5F5F5"/>
<path d="M13.2516 9.83929L13.2469 9.84399C12.9 10.1112 12.4641 10.2706 12.0047 10.2706C11.5453 10.2706 11.1094 10.1112 10.7625 9.84399L10.7578 9.83929C10.7109 9.78769 10.6453 9.76899 10.5797 9.77839L9.3703 10.0315L9.63749 10.2659C9.7078 10.3268 9.80155 10.3596 9.8953 10.3549C10.1109 10.5706 10.3594 10.7534 10.6312 10.894L10.5516 11.0393C10.9828 11.2737 11.4797 11.4096 12.0094 11.4096C12.5344 11.4096 13.0312 11.2737 13.4672 11.0393L13.3875 10.894C13.6594 10.7534 13.9078 10.5706 14.1234 10.3549C14.2172 10.3596 14.3062 10.3315 14.3812 10.2659L14.6484 10.0315L13.4391 9.77839C13.3641 9.76429 13.2937 9.78769 13.2516 9.83929ZM10.7344 10.6831C10.5187 10.5706 10.3172 10.4252 10.1391 10.2612L10.2562 10.2049C10.4203 10.3502 10.5984 10.4768 10.7906 10.5752L10.7344 10.6831ZM13.8609 10.2612C13.6828 10.4252 13.4812 10.5706 13.2656 10.6831L13.2094 10.5799C13.4015 10.4768 13.5844 10.3549 13.7437 10.2096L13.8609 10.2612ZM12 10.6315C11.4281 10.6315 10.9031 10.4299 10.4906 10.0924L10.6125 10.0362C11.0016 10.3362 11.4844 10.5096 12 10.5096C12.5156 10.5096 12.9984 10.3362 13.3875 10.0362L13.5094 10.0924C13.0969 10.4299 12.5719 10.6315 12 10.6315Z" fill="#F5F5F5"/>
<path d="M10.6828 9.6705C10.7344 9.7127 10.7859 9.7549 10.8422 9.7924H13.1531C13.2094 9.7549 13.2609 9.7127 13.3125 9.6705L13.1953 9.5533H10.7953L10.6828 9.6705Z" fill="#F5F5F5"/>
</svg>
