<svg width="24" height="25" viewBox="0 0 24 25" fill="none" xmlns="http://www.w3.org/2000/svg">
<path fill-rule="evenodd" clip-rule="evenodd" d="M12.5161 1.3646C12.9001 1.8206 12.4261 2.2886 12.4261 2.7926L12.3901 6.1646C12.1862 6.20035 11.9856 6.25252 11.7901 6.3206V6.2606L11.6941 2.7326C11.6281 2.2226 11.4361 1.5206 12.0001 1.2206C12.0885 1.19336 12.1827 1.19069 12.2726 1.21288C12.3624 1.23508 12.4445 1.2813 12.5101 1.3466L12.5161 1.3646Z" fill="#424242"/>
<path fill-rule="evenodd" clip-rule="evenodd" d="M5.466 5.21063C5.62886 4.82173 5.82984 4.44991 6.066 4.10063C6.40978 3.67495 6.85851 3.34615 7.368 3.14663L7.5 3.02063C6.98604 3.87914 6.29211 4.61606 5.466 5.18063V5.21063Z" fill="#424242"/>
<path fill-rule="evenodd" clip-rule="evenodd" d="M17.9221 3.9686C18.2294 4.32093 18.4675 4.72804 18.6241 5.1686L17.6041 4.2566C17.2433 3.92027 16.9322 3.53442 16.6801 3.1106C17.1559 3.29462 17.5815 3.58863 17.9221 3.9686Z" fill="#424242"/>
<path fill-rule="evenodd" clip-rule="evenodd" d="M13.536 3.33262C13.499 3.39034 13.4442 3.43454 13.38 3.45862C13.254 3.45862 13.092 3.39262 12.966 3.39262C13.0889 3.33633 13.2177 3.29407 13.35 3.26662C13.3663 3.25536 13.3849 3.24809 13.4045 3.24539C13.4241 3.24268 13.444 3.24462 13.4627 3.25105C13.4814 3.25747 13.4983 3.2682 13.5121 3.28237C13.5259 3.29654 13.5361 3.31375 13.542 3.33262H13.536Z" fill="#424242"/>
<path fill-rule="evenodd" clip-rule="evenodd" d="M14.49 4.60458C14.6115 4.85706 14.6639 5.13726 14.6418 5.41659C14.6196 5.69592 14.5238 5.96438 14.364 6.19458C13.764 7.05258 12.714 7.02258 11.82 7.30458C11.6286 7.3401 11.4505 7.42697 11.3047 7.5559C11.1588 7.68483 11.0508 7.85098 10.992 8.03658C10.9904 8.17952 11.0274 8.32025 11.0992 8.44384C11.1711 8.56743 11.275 8.66928 11.4 8.73858L11.526 8.80458L11.556 9.47058C11.2642 9.4321 10.9887 9.31366 10.76 9.12835C10.5312 8.94304 10.3582 8.69809 10.26 8.42058C10.2192 8.11862 10.2628 7.81126 10.386 7.53258C11.022 6.33258 12.516 6.67458 13.5 6.03858C13.6103 5.91892 13.7106 5.7905 13.8 5.65458C13.6599 5.53759 13.4929 5.45719 13.314 5.42058C13.1082 5.33771 12.8953 5.27345 12.678 5.22858V5.04858C13.0729 5.1216 13.4524 5.26162 13.8 5.46258C13.832 5.35898 13.832 5.24817 13.8 5.14458C13.7575 4.92794 13.6495 4.72956 13.4908 4.57615C13.332 4.42275 13.13 4.32168 12.912 4.28658C12.8352 4.24402 12.7447 4.23325 12.66 4.25658V3.59058C13.0217 3.59186 13.377 3.68572 13.6921 3.86322C14.0071 4.04072 14.2715 4.29595 14.46 4.60458H14.49Z" fill="#424242"/>
<path fill-rule="evenodd" clip-rule="evenodd" d="M19.512 6.80059C19.482 6.89659 19.482 7.02259 19.446 7.11859C18.936 6.32659 17.952 5.81659 17.538 4.95859C18.0657 5.16973 18.526 5.52021 18.87 5.97259C19.0189 6.18147 19.157 6.39775 19.284 6.62059C19.2538 6.31828 19.1894 6.02038 19.092 5.73259C18.9 5.25859 18.87 4.71859 18.708 4.23859C19.0377 4.56572 19.2823 4.96863 19.4204 5.4121C19.5584 5.85557 19.5858 6.32611 19.5 6.78259L19.512 6.80059Z" fill="#424242"/>
<path fill-rule="evenodd" clip-rule="evenodd" d="M15.1861 4.41262L15.2821 4.50862C15.2154 4.51644 15.1478 4.50607 15.0866 4.47861C15.0253 4.45114 14.9726 4.40761 14.9341 4.35262C15.0301 4.35262 15.1561 4.28662 15.1861 4.41862V4.41262Z" fill="#424242"/>
<path fill-rule="evenodd" clip-rule="evenodd" d="M4.80011 6.44658C4.83603 6.43373 4.86865 6.41307 4.89563 6.3861C4.92261 6.35912 4.94326 6.3265 4.95611 6.29058C5.10358 5.97033 5.33341 5.69495 5.62211 5.49258L6.63612 4.76058C6.3612 5.36819 5.92291 5.8875 5.37011 6.26058C5.10947 6.52141 4.86501 6.79792 4.63811 7.08858C4.51211 6.13458 4.48211 5.08458 5.11212 4.35858C5.13682 5.06781 5.03106 5.77555 4.80011 6.44658Z" fill="#424242"/>
<path fill-rule="evenodd" clip-rule="evenodd" d="M20.1781 7.74861L19.7641 9.17661V9.20661C19.6689 8.91653 19.54 8.63863 19.3801 8.37861L18.7141 7.42461C18.5331 7.12574 18.4242 6.78885 18.3961 6.4406L19.1281 7.32861C19.3599 7.73685 19.5605 8.16207 19.7281 8.60061C19.8001 7.97061 19.7341 7.22061 19.8001 6.62061C19.8633 6.32882 19.8954 6.03116 19.8961 5.7326C20.2009 6.3646 20.2895 7.07932 20.1481 7.76661L20.1781 7.74861Z" fill="#424242"/>
<path fill-rule="evenodd" clip-rule="evenodd" d="M4.32 7.82061C4.29324 8.10828 4.31555 8.39841 4.386 8.67861C4.4027 8.54726 4.43493 8.41836 4.482 8.29461C4.71345 7.609 5.10413 6.98802 5.622 6.48261C5.526 7.56261 4.512 8.28261 4.38 9.30861C3.996 8.25861 3.366 6.90861 4.092 5.81061C4.128 6.51261 4.2 7.17861 4.32 7.82061Z" fill="#424242"/>
<path fill-rule="evenodd" clip-rule="evenodd" d="M14.7721 6.9566L14.7421 6.9866C14.7232 6.97232 14.71 6.95195 14.7045 6.92897C14.699 6.90599 14.7017 6.88182 14.7121 6.8606C14.7311 6.86861 14.7474 6.88192 14.7591 6.89893C14.7708 6.91595 14.7774 6.93596 14.7781 6.9566H14.7721Z" fill="#424242"/>
<path fill-rule="evenodd" clip-rule="evenodd" d="M14.808 7.30462C14.808 7.33462 14.778 7.33462 14.778 7.37062H14.646C14.6396 7.34777 14.6379 7.32389 14.6407 7.30034C14.6436 7.2768 14.6512 7.25405 14.6629 7.23342C14.6746 7.21279 14.6902 7.19468 14.709 7.18013C14.7277 7.16557 14.7491 7.15487 14.772 7.14862C14.772 7.21462 14.898 7.27462 14.802 7.30462H14.808Z" fill="#424242"/>
<path fill-rule="evenodd" clip-rule="evenodd" d="M12.264 10.6106C12.1197 10.6576 11.9709 10.6898 11.82 10.7066L11.754 7.59258C11.9295 7.52608 12.1101 7.47391 12.294 7.43658L12.264 9.78859V10.6166V10.6106Z" fill="#424242"/>
<path fill-rule="evenodd" clip-rule="evenodd" d="M14.712 7.62258C14.7093 7.6322 14.7043 7.64099 14.6973 7.64815C14.6903 7.65532 14.6817 7.66063 14.6722 7.66361C14.6626 7.66659 14.6525 7.66714 14.6427 7.66522C14.6329 7.66329 14.6237 7.65895 14.616 7.65258C14.616 7.62258 14.52 7.58658 14.586 7.55658C14.6106 7.55769 14.6346 7.56418 14.6564 7.57559C14.6781 7.58699 14.6971 7.60303 14.712 7.62258Z" fill="#424242"/>
<path fill-rule="evenodd" clip-rule="evenodd" d="M3.33604 7.82062C3.52804 8.76862 4.20004 9.50062 4.41604 10.4186C4.46589 10.5936 4.53011 10.7642 4.60804 10.9286C4.64712 10.6542 4.66916 10.3777 4.67404 10.1006C4.71372 9.45858 4.92056 8.83806 5.27404 8.30062C5.46604 9.44662 4.76404 10.3046 4.80004 11.4146L3.81004 10.1666C3.57426 9.82904 3.4105 9.44654 3.32895 9.04293C3.2474 8.63933 3.24982 8.22325 3.33604 7.82062Z" fill="#424242"/>
<path fill-rule="evenodd" clip-rule="evenodd" d="M11.532 7.9706V8.4206C11.4635 8.38005 11.4052 8.32437 11.3615 8.25781C11.3178 8.19125 11.2899 8.11559 11.28 8.0366C11.2759 8.0017 11.2797 7.96631 11.2911 7.93307C11.3025 7.89983 11.3213 7.8696 11.346 7.8446L11.538 7.9406L11.532 7.9706Z" fill="#424242"/>
<path fill-rule="evenodd" clip-rule="evenodd" d="M20.496 9.62058L20.178 10.2206L19.446 11.2346L19.2 11.6606C19.266 10.4606 18.6 9.43458 18.786 8.19858C19.2415 9.05689 19.4492 10.025 19.386 10.9946C19.4752 10.8808 19.5405 10.7502 19.578 10.6106L20.016 9.62058C20.238 9.11058 20.46 8.57058 20.652 8.03058C20.7757 8.57329 20.721 9.14144 20.496 9.65058V9.62058Z" fill="#424242"/>
<path fill-rule="evenodd" clip-rule="evenodd" d="M13.284 9.50062C13.4089 9.60122 13.5024 9.73547 13.5535 9.88751C13.6045 10.0396 13.6109 10.203 13.572 10.3586C13.5432 10.4963 13.4862 10.6266 13.4047 10.7412C13.3231 10.8558 13.2187 10.9523 13.098 11.0246C12.7342 11.1594 12.3637 11.2756 11.988 11.3726C11.905 11.4065 11.8307 11.4587 11.7704 11.5251C11.7102 11.5916 11.6657 11.6707 11.64 11.7566V12.3566C11.5289 12.3211 11.4306 12.2539 11.357 12.1633C11.2835 12.0727 11.238 11.9627 11.226 11.8466C11.1883 11.7208 11.1893 11.5866 11.2289 11.4614C11.2685 11.3362 11.3448 11.2258 11.448 11.1446C11.922 10.7966 12.558 10.8566 12.942 10.3826C12.9681 10.3271 12.9791 10.2657 12.9739 10.2046C12.9686 10.1435 12.9473 10.0848 12.912 10.0346C12.8096 9.93333 12.6922 9.84835 12.564 9.78262V9.18262C12.832 9.22143 13.0848 9.33122 13.296 9.50062H13.284Z" fill="#424242"/>
<path fill-rule="evenodd" clip-rule="evenodd" d="M9.31203 9.75263C9.28269 9.75608 9.25314 9.748 9.22964 9.73009C9.20613 9.71218 9.1905 9.68584 9.18604 9.65663C9.21603 9.59063 9.21603 9.50063 9.25203 9.43463C9.37803 9.46463 9.28203 9.65663 9.31803 9.75263H9.31203Z" fill="#424242"/>
<path fill-rule="evenodd" clip-rule="evenodd" d="M11.568 9.91457C11.538 9.91457 11.568 10.0106 11.502 9.98057C11.436 9.95057 11.436 9.91457 11.472 9.88457C11.508 9.85457 11.568 9.85457 11.568 9.91457Z" fill="#424242"/>
<path fill-rule="evenodd" clip-rule="evenodd" d="M9.31206 10.1366C9.30144 10.1421 9.28952 10.1447 9.27757 10.1439C9.26563 10.1432 9.25411 10.1392 9.24425 10.1324C9.23439 10.1256 9.22655 10.1163 9.22159 10.1054C9.21662 10.0945 9.21471 10.0825 9.21606 10.0706C9.22437 10.0138 9.2471 9.96012 9.28206 9.91461C9.30747 9.9857 9.31769 10.0613 9.31206 10.1366Z" fill="#424242"/>
<path fill-rule="evenodd" clip-rule="evenodd" d="M12.6481 10.1366C12.6737 10.1972 12.684 10.2631 12.6781 10.3286C12.6503 10.3597 12.616 10.3845 12.5777 10.401C12.5393 10.4176 12.4979 10.4257 12.4561 10.4246C12.5071 10.336 12.5398 10.2381 12.5521 10.1366C12.5669 10.1445 12.5834 10.1486 12.6001 10.1486C12.6169 10.1486 12.6333 10.1445 12.6481 10.1366Z" fill="#424242"/>
<path fill-rule="evenodd" clip-rule="evenodd" d="M18.684 12.8666C18.9337 12.5996 19.1475 12.301 19.32 11.9786L20.022 11.1506C20.178 10.9286 20.34 10.7666 20.496 10.5506C20.37 11.7506 19.446 12.6506 18.492 13.3766L18.204 13.6646C18.4818 12.8954 18.5359 12.0633 18.36 11.2646C18.3595 10.9175 18.4247 10.5735 18.552 10.2506C18.7999 11.0963 18.8431 11.9889 18.678 12.8546L18.684 12.8666Z" fill="#424242"/>
<path fill-rule="evenodd" clip-rule="evenodd" d="M4.512 11.7866C4.734 12.1046 4.956 12.4226 5.214 12.7406C5.09532 11.9242 5.13813 11.0925 5.34 10.2926C5.46149 10.5303 5.53682 10.7889 5.562 11.0546L5.592 11.4206V12.9446C5.61889 13.1278 5.66103 13.3084 5.718 13.4846L4.764 12.7706C4.00333 12.145 3.49585 11.2644 3.336 10.2926L4.536 11.7866H4.512Z" fill="#424242"/>
<path fill-rule="evenodd" clip-rule="evenodd" d="M11.5681 10.6766C11.5681 10.7066 11.5381 10.7426 11.5021 10.7066C11.5204 10.6274 11.5529 10.5522 11.5981 10.4846C11.6089 10.5167 11.6118 10.5509 11.6066 10.5843C11.6014 10.6177 11.5882 10.6494 11.5681 10.6766Z" fill="#424242"/>
<path fill-rule="evenodd" clip-rule="evenodd" d="M11.436 10.7726L11.4 10.8206C11.4 10.7726 11.4 10.6766 11.4 10.6406C11.466 10.6406 11.43 10.7366 11.466 10.7666L11.436 10.7726Z" fill="#424242"/>
<path fill-rule="evenodd" clip-rule="evenodd" d="M6.51604 10.9586C6.52688 10.9906 6.52981 11.0248 6.52459 11.0583C6.51937 11.0917 6.50614 11.1234 6.48604 11.1506C6.45924 11.1271 6.43904 11.0971 6.42746 11.0634C6.41588 11.0297 6.41333 10.9936 6.42004 10.9586C6.42004 10.8926 6.51604 10.9286 6.51604 10.9586Z" fill="#424242"/>
<path fill-rule="evenodd" clip-rule="evenodd" d="M12.198 14.8706C12.1739 14.9181 12.1414 14.9608 12.102 14.9966C12.006 15.0626 11.946 14.9306 11.91 14.8706L11.88 12.7706L11.85 11.7206C11.9694 11.6495 12.0988 11.5969 12.234 11.5646V12.5786L12.204 14.8646L12.198 14.8706Z" fill="#424242"/>
<path fill-rule="evenodd" clip-rule="evenodd" d="M17.4 14.4206C17.3603 14.491 17.3281 14.5654 17.304 14.6426C18.3098 14.0568 19.2598 13.38 20.142 12.6206C19.668 14.2406 17.886 14.5586 16.644 15.1946C17.376 14.2406 17.244 12.9086 17.976 11.9546C17.9923 12.8117 17.7943 13.6594 17.4 14.4206Z" fill="#424242"/>
<path fill-rule="evenodd" clip-rule="evenodd" d="M6.35407 12.7406C6.64207 13.5326 6.70207 14.4266 7.18207 15.1406C6.25807 14.7566 5.24407 14.5046 4.48207 13.7126C4.20125 13.423 3.98456 13.0775 3.84607 12.6986C3.87607 12.6686 3.91207 12.6986 3.91207 12.7286C4.60807 13.3406 5.40007 13.6286 6.10207 14.2346C6.25599 14.3827 6.42723 14.5116 6.61207 14.6186C6.51607 14.2706 6.29407 13.9526 6.16807 13.6046C5.97787 13.0995 5.90006 12.5589 5.94007 12.0206C6.11505 12.2418 6.25471 12.4887 6.35407 12.7526V12.7406Z" fill="#424242"/>
<path fill-rule="evenodd" clip-rule="evenodd" d="M11.5021 12.5486C11.4846 12.5638 11.4622 12.5721 11.4391 12.5721C11.4159 12.5721 11.3935 12.5638 11.376 12.5486L11.3461 12.4826H11.3101C11.2496 12.3986 11.2161 12.2981 11.2141 12.1946C11.2801 12.3206 11.4361 12.4166 11.5021 12.5426V12.5486Z" fill="#424242"/>
<path fill-rule="evenodd" clip-rule="evenodd" d="M11.472 2.82858C10.0299 2.96223 8.68594 3.61713 7.69201 4.67058L8.40001 5.36658C9.21172 4.61136 10.2032 4.0764 11.28 3.81258L11.472 3.74658V4.38258C11.058 4.60458 10.77 5.11458 10.362 5.27058C10.1201 5.43841 9.86531 5.58687 9.60001 5.71458C9.55342 5.69845 9.50264 5.69923 9.45657 5.71678C9.4105 5.73434 9.37207 5.76754 9.34801 5.81058L9.22201 6.09858C9.21118 6.06652 9.20825 6.03233 9.21347 5.9989C9.21869 5.96547 9.23192 5.9338 9.25201 5.90658C9.18601 5.90658 9.09601 5.93658 9.03001 5.93658C9.12565 5.91963 9.21378 5.8737 9.28246 5.80502C9.35114 5.73634 9.39706 5.64822 9.41401 5.55258C9.49465 5.2175 9.62403 4.89608 9.79801 4.59858C9.80011 4.57378 9.81071 4.55046 9.82801 4.53258C9.34758 4.78181 8.90843 5.10358 8.52601 5.48658C8.62201 5.61258 8.74801 5.70858 8.84401 5.83458L8.77801 5.90058L8.46001 5.58258C7.6023 6.49321 7.12569 7.69761 7.12801 8.94858H8.11201C8.11929 7.95054 8.50035 6.99147 9.18001 6.26058L9.15001 6.23058L9.18001 6.16458L9.24601 6.19458C9.84668 5.5588 10.6391 5.1373 11.502 4.99458V5.21058C10.6788 5.33074 9.91896 5.72123 9.34201 6.32058L10.2 7.17858C10.3577 7.01365 10.5398 6.87401 10.74 6.76458C10.7513 6.78082 10.7585 6.79949 10.7612 6.81907C10.7639 6.83865 10.762 6.85858 10.7556 6.87727C10.7492 6.89596 10.7384 6.91288 10.7243 6.92666C10.7101 6.94043 10.6929 6.95068 10.674 6.95658C10.1891 7.27622 9.83883 7.76319 9.69001 8.32458C9.75545 8.26902 9.83076 8.22627 9.91201 8.19858C9.97801 8.19858 9.91201 8.10258 10.008 8.13258C10.0354 8.23622 10.0455 8.34365 10.038 8.45058C10.0799 8.67491 10.1732 8.88648 10.3106 9.06867C10.448 9.25085 10.6258 9.3987 10.83 9.50058L11.052 9.56658C11.0163 9.57979 10.9839 9.60057 10.9569 9.6275C10.93 9.65443 10.9092 9.68686 10.896 9.72258C10.896 9.75258 10.866 9.78858 10.866 9.81858C10.866 9.84858 10.8 9.97458 10.866 10.0406C10.9266 10.014 10.9806 9.97448 11.0242 9.9247C11.0677 9.87492 11.0998 9.81615 11.118 9.75258C11.2062 9.64759 11.3302 9.57915 11.466 9.56058C11.5057 9.58388 11.5387 9.61692 11.562 9.65658C11.556 9.67143 11.547 9.68492 11.5357 9.69626C11.5244 9.70759 11.5109 9.71654 11.496 9.72258L11.244 9.94458L11.178 9.91458L10.296 10.8206C10.5185 11.0477 10.7892 11.222 11.088 11.3306C11.058 11.3606 11.058 11.4566 11.022 11.4266C10.7217 11.3067 10.4513 11.1224 10.23 10.8866L9.49801 11.6186C9.55345 11.7444 9.64021 11.8539 9.75001 11.9366C9.78634 11.9598 9.81489 11.9933 9.832 12.0329C9.84911 12.0724 9.85399 12.1162 9.84601 12.1586C10.3743 12.546 10.9949 12.7881 11.646 12.8606V12.9866C10.9732 12.9384 10.3261 12.7082 9.77401 12.3206C9.48601 12.2246 9.33001 12.5126 9.04201 12.4766C8.93116 12.434 8.81052 12.4236 8.69401 12.4466L8.56801 12.5726C9.37971 13.4197 10.481 13.9296 11.652 14.0006L11.622 14.1566C10.477 14.0721 9.39819 13.5878 8.57401 12.7886L8.40001 12.6746L7.69801 13.3766C8.74634 14.5061 10.1966 15.1784 11.736 15.2486C12.5584 15.2662 13.3762 15.121 14.1424 14.8213C14.9085 14.5217 15.6078 14.0735 16.2 13.5026C16.2021 13.4778 16.2127 13.4545 16.23 13.4366L15.498 12.7046C15.1025 13.0853 14.6538 13.4067 14.166 13.6586C13.9735 13.8164 13.7593 13.9457 13.53 14.0426L13.434 13.9466C13.116 14.0126 12.798 14.1026 12.48 14.1386L12.45 13.9826C12.6865 13.9561 12.921 13.914 13.152 13.8566C13.1248 13.7964 13.085 13.7428 13.0353 13.6994C12.9857 13.6559 12.9272 13.6236 12.864 13.6046C12.8067 13.5609 12.7644 13.5005 12.7429 13.4317C12.7214 13.3629 12.7218 13.2891 12.744 13.2206C12.8296 13.4026 12.976 13.549 13.158 13.6346C13.2288 13.5167 13.2739 13.3853 13.2904 13.2488C13.307 13.1123 13.2946 12.9739 13.254 12.8426C13.2191 12.8268 13.1813 12.8187 13.143 12.8187C13.1047 12.8187 13.0669 12.8268 13.032 12.8426C13.0832 12.9311 13.1158 13.0291 13.128 13.1306C13.158 13.1966 13.128 13.2566 13.158 13.3226C13.0615 13.2614 12.9845 13.174 12.936 13.0706C12.9163 13.0329 12.8892 12.9996 12.8561 12.9727C12.8231 12.9459 12.785 12.9261 12.744 12.9146L12.522 12.9806V12.8006C12.566 12.8023 12.6096 12.7919 12.648 12.7706C12.396 12.7706 12.552 12.5186 12.522 12.3866C12.685 12.4553 12.8275 12.5648 12.936 12.7046C13.002 12.6746 13.128 12.6746 13.092 12.6086C12.9311 12.414 12.7251 12.2616 12.492 12.1646V11.4986C12.766 11.4566 13.0266 11.3519 13.2535 11.1927C13.4804 11.0335 13.6674 10.824 13.8 10.5806C13.8698 10.3764 13.8832 10.1571 13.8389 9.94596C13.7945 9.73478 13.694 9.53946 13.548 9.38058C13.2636 9.13723 12.9268 8.96271 12.564 8.87058V7.67058L12.756 7.57458C12.852 7.70058 12.63 7.89258 12.852 7.95858C12.8955 7.94808 12.9343 7.92361 12.9624 7.88892C12.9906 7.85423 13.0066 7.81125 13.008 7.76658C13.0132 7.72715 13.0272 7.68941 13.049 7.65616C13.0709 7.62291 13.0999 7.59503 13.134 7.57458C13.2244 7.50067 13.3355 7.45665 13.452 7.44858L14.652 6.24858C14.6416 6.21149 14.6389 6.17265 14.644 6.13447C14.6492 6.09629 14.6621 6.05957 14.682 6.02658L14.808 6.12258C14.838 5.99658 15.156 5.90058 14.964 5.73858L14.868 5.64258C14.9327 5.4554 14.9576 5.25678 14.941 5.05944C14.9245 4.8621 14.8669 4.67038 14.772 4.49658C14.7819 4.45773 14.8053 4.42368 14.838 4.40058C14.8919 4.46712 14.9594 4.52136 15.036 4.55965C15.1126 4.59794 15.1965 4.6194 15.282 4.62258C15.3486 4.67646 15.4028 4.74396 15.4411 4.82054C15.4794 4.89712 15.5008 4.98101 15.504 5.06658C15.5209 5.10351 15.5479 5.13492 15.5819 5.15721C15.6158 5.1795 15.6554 5.19175 15.696 5.19258L16.332 4.55658C15.3898 3.54011 14.1105 2.90045 12.732 2.75658V2.54058C13.8812 2.69921 14.9676 3.16068 15.8796 3.87766C16.7916 4.59463 17.4965 5.5413 17.922 6.62058C18.398 7.88874 18.4767 9.27173 18.1477 10.5857C17.8186 11.8997 17.0975 13.0824 16.08 13.9766C15.013 14.9104 13.6516 15.4393 12.234 15.4706C10.6689 15.5528 9.13236 15.0284 7.94401 14.0066C6.94087 13.1482 6.22358 12.0041 5.888 10.7271C5.55242 9.4502 5.61452 8.10127 6.06601 6.86058C6.38393 5.92269 6.91353 5.0706 7.61378 4.37035C8.31403 3.67009 9.16612 3.14049 10.104 2.82258C10.5474 2.66822 11.006 2.56162 11.472 2.50458V2.82858ZM10.23 4.62858C10.2025 4.63637 10.1783 4.65286 10.161 4.67558C10.1437 4.6983 10.1342 4.72602 10.134 4.75458C10.164 4.78458 10.164 4.88058 10.26 4.85058C10.356 4.82058 10.386 4.78458 10.356 4.72458C10.326 4.66458 10.26 4.59858 10.23 4.62858ZM16.398 4.67058L15.762 5.30658L15.918 5.49858C16.0029 5.68846 16.1485 5.84468 16.332 5.94258C16.4612 6.21262 16.6334 6.45985 16.842 6.67458C16.938 6.86658 16.686 6.80058 16.62 6.92658C16.921 7.56093 17.0631 8.25903 17.034 8.96058H18.048C18.0424 7.37669 17.4552 5.85004 16.398 4.67058ZM7.62601 4.73658C6.58343 5.89216 5.98582 7.38087 5.94001 8.93658H6.96001C6.9942 7.64122 7.48999 6.40068 8.35801 5.43858C8.10601 5.18658 7.88401 4.92858 7.62601 4.70658V4.73658ZM15.06 6.02058L14.838 6.21258C15.0565 6.52868 15.3014 6.82574 15.57 7.10058C15.5829 7.23261 15.6152 7.36202 15.666 7.48458C15.6 7.55058 15.696 7.61058 15.696 7.67658C15.6988 7.59817 15.7215 7.52177 15.762 7.45458C15.984 7.58058 15.762 7.80258 15.792 7.99458C15.862 8.30937 15.9141 8.62788 15.948 8.94858H16.872C16.8764 8.30458 16.7456 7.66684 16.488 7.07658C16.458 7.07658 16.422 7.10658 16.392 7.10658C16.2793 6.95618 16.1847 6.79306 16.11 6.62058C16.0368 6.6052 15.9612 6.6052 15.888 6.62058C15.8536 6.58635 15.8097 6.56334 15.762 6.55458C15.6505 6.50805 15.5336 6.47579 15.414 6.45858C15.3154 6.29795 15.1964 6.15073 15.06 6.02058ZM10.134 7.22058L9.27601 6.38658C8.64413 7.09759 8.28484 8.00963 8.26201 8.96058H8.96401C9.02988 8.88773 9.10444 8.82325 9.18601 8.76858C9.28553 8.63719 9.40263 8.5201 9.53401 8.42058C9.65356 7.98517 9.85741 7.57746 10.134 7.22058ZM14.676 6.39258L13.884 7.22058C13.8991 7.2785 13.9311 7.33058 13.976 7.37014C14.0209 7.40971 14.0767 7.43493 14.136 7.44258C14.136 7.46008 14.1291 7.47687 14.1167 7.48925C14.1043 7.50162 14.0875 7.50858 14.07 7.50858C14.1208 7.57656 14.1885 7.63006 14.2664 7.66374C14.3443 7.69743 14.4297 7.71013 14.514 7.70058C14.5445 7.72224 14.5693 7.75109 14.586 7.78457C14.6028 7.81806 14.611 7.85515 14.61 7.89258C14.766 7.98858 14.61 8.14458 14.676 8.27658C14.7525 8.19468 14.8536 8.13992 14.964 8.12058C15.029 8.21368 15.0626 8.32507 15.06 8.43858C15.1458 8.43393 15.2274 8.39971 15.2908 8.34174C15.3543 8.28377 15.3957 8.20562 15.408 8.12058C15.4333 8.21499 15.4283 8.31494 15.3939 8.40641C15.3595 8.49787 15.2973 8.57626 15.216 8.63058C15.15 8.66058 15.09 8.66058 15.024 8.69658C15.0225 8.75782 15.0037 8.81739 14.9697 8.86837C14.9357 8.91934 14.888 8.95964 14.832 8.98458H15.756C15.7618 8.83593 15.7517 8.6871 15.726 8.54058C15.7115 8.5695 15.6892 8.59381 15.6617 8.61077C15.6341 8.62773 15.6024 8.63666 15.57 8.63658C15.5293 8.39513 15.5396 8.14785 15.6 7.91058C15.57 7.88058 15.57 7.75458 15.504 7.78458C15.474 7.53258 15.156 7.40058 15.156 7.18458H15.282L15.186 7.02858C15.1887 7.04581 15.1874 7.06342 15.1822 7.08006C15.177 7.09671 15.168 7.11194 15.156 7.12458C15.0878 7.07916 15.0319 7.01762 14.9931 6.9454C14.9544 6.87318 14.9341 6.79252 14.934 6.71058C14.8599 6.59713 14.7755 6.49068 14.682 6.39258H14.676ZM13.758 7.34058H13.728C13.7614 7.34542 13.7938 7.35555 13.824 7.37058L13.758 7.34058ZM13.566 7.53258L13.374 7.68858C13.4777 7.71594 13.5851 7.72607 13.692 7.71858C13.7182 7.79126 13.7403 7.86538 13.758 7.94058C13.758 7.91058 13.788 7.94058 13.788 7.94058C13.7989 7.90852 13.8018 7.87433 13.7966 7.8409C13.7913 7.80747 13.7781 7.7758 13.758 7.74858C13.8256 7.70341 13.9008 7.67089 13.98 7.65258C13.9843 7.63065 13.9839 7.60806 13.9787 7.58632C13.9735 7.56458 13.9637 7.54421 13.95 7.52658C13.8506 7.52942 13.7527 7.55185 13.662 7.59258C13.6513 7.5952 13.6402 7.59554 13.6294 7.59356C13.6186 7.59158 13.6083 7.58734 13.5992 7.58111C13.5901 7.57487 13.5825 7.56679 13.5768 7.55739C13.5711 7.548 13.5674 7.53749 13.566 7.52658V7.53258ZM13.248 7.68858C13.218 7.65858 13.314 7.62258 13.314 7.59258L13.248 7.68858ZM5.94001 9.08658C5.95952 10.6477 6.56072 12.1453 7.62601 13.2866C7.87801 13.0346 8.13601 12.8126 8.35801 12.5546L8.01001 12.2066C7.94401 12.1766 7.88401 12.2066 7.81801 12.1766C7.81178 12.0464 7.78961 11.9174 7.75201 11.7926C7.61296 11.6948 7.44798 11.6405 7.27801 11.6366C7.22739 11.6083 7.18586 11.5662 7.15824 11.5152C7.13062 11.4642 7.11806 11.4064 7.12201 11.3486C7.18801 11.0966 6.90001 11.0966 6.80401 10.9346C6.76411 10.9302 6.7255 10.9178 6.69046 10.8983C6.65542 10.8787 6.62466 10.8523 6.60001 10.8206C6.57502 10.8453 6.54478 10.8641 6.51154 10.8755C6.4783 10.8869 6.44292 10.8907 6.40801 10.8866C6.39228 10.8517 6.38414 10.8139 6.38414 10.7756C6.38414 10.7373 6.39228 10.6995 6.40801 10.6646C6.50401 10.4426 6.69601 10.5386 6.85201 10.5386C6.94166 10.4833 7.0386 10.4409 7.14001 10.4126C7.03938 9.9858 6.98705 9.54905 6.98401 9.11058H5.94001V9.08658ZM8.10001 9.08658H7.14601C7.14295 9.52785 7.20771 9.96697 7.33801 10.3886C7.45248 10.4212 7.56019 10.474 7.65601 10.5446C7.63217 10.4731 7.62199 10.3978 7.62601 10.3226C7.66031 10.2722 7.68386 10.2153 7.69522 10.1554C7.70657 10.0956 7.70548 10.034 7.69201 9.97458C7.77958 9.77647 7.9379 9.61815 8.13601 9.53058L8.10601 9.08658H8.10001ZM8.25601 9.08658L8.32201 9.53058C8.41784 9.60116 8.52554 9.65399 8.64001 9.68658C8.70294 9.6428 8.75546 9.5857 8.79383 9.51933C8.8322 9.45296 8.85548 9.37896 8.86201 9.30258C8.95801 8.91858 8.47801 9.17658 8.26201 9.08058L8.25601 9.08658ZM9.30601 9.11658C9.23001 9.20821 9.14564 9.29257 9.05401 9.36858C9.05122 9.42945 9.03594 9.4891 9.0091 9.54381C8.98226 9.59852 8.94445 9.64711 8.89801 9.68658C8.86801 9.75258 8.83201 9.81258 8.89801 9.84258C8.95166 9.88757 8.99021 9.94794 9.00846 10.0155C9.0267 10.0831 9.02375 10.1547 9.00001 10.2206C9.07125 10.2894 9.11668 10.3806 9.12869 10.4789C9.14071 10.5772 9.11858 10.6766 9.06601 10.7606C9.22174 10.9017 9.32355 11.0926 9.35401 11.3006C9.31988 11.3174 9.29379 11.347 9.28142 11.383C9.26905 11.4189 9.27142 11.4583 9.28801 11.4926C9.28801 11.5586 9.35401 11.5586 9.41401 11.5586C9.63601 11.3066 9.92401 11.0846 10.146 10.8266C9.74333 10.3539 9.50906 9.76085 9.48001 9.14058C9.42915 9.12523 9.37488 9.12523 9.32401 9.14058L9.30601 9.11658ZM14.742 9.08658C14.7462 9.23668 14.7683 9.38575 14.808 9.53058C14.8087 9.55121 14.8153 9.57123 14.827 9.58824C14.8387 9.60525 14.855 9.61856 14.874 9.62658C14.9137 9.60328 14.9467 9.57023 14.97 9.53058C15.0893 9.54939 15.2001 9.60376 15.288 9.68658L15.222 9.78258C15.1226 9.84705 15.0158 9.89942 14.904 9.93858C14.808 10.1306 14.52 10.0646 14.46 10.2866C14.43 10.3166 14.394 10.4126 14.334 10.3526C14.4 10.6406 14.016 10.6046 13.92 10.7966C14.016 10.6406 14.238 10.7966 14.268 10.6046C14.334 10.5386 14.364 10.5746 14.424 10.6046C14.3866 10.76 14.3645 10.9188 14.358 11.0786C14.3339 11.1428 14.2897 11.1975 14.232 11.2346C14.232 11.2425 14.2352 11.2502 14.2408 11.2558C14.2464 11.2614 14.2541 11.2646 14.262 11.2646C14.3009 11.2102 14.3473 11.1617 14.4 11.1206C14.688 11.1506 14.466 11.5346 14.652 11.6606C15.3287 10.9701 15.7244 10.0526 15.762 9.08658H14.742ZM15.942 9.08658C15.9116 10.0914 15.5171 11.0509 14.832 11.7866L14.958 11.9426V11.9126C14.9755 11.8974 14.9979 11.889 15.021 11.889C15.0442 11.889 15.0665 11.8974 15.084 11.9126C15.1439 12.1565 15.2912 12.37 15.498 12.5126C16.369 11.5907 16.8671 10.3785 16.896 9.11058H15.918L15.942 9.08658ZM17.052 9.08658C17.0368 10.4067 16.5173 11.6711 15.6 12.6206L16.332 13.3526L16.524 13.1306C17.4885 12.0041 18.0277 10.5754 18.048 9.09258H17.028L17.052 9.08658ZM9.60001 9.11658V9.36858C9.62761 9.29804 9.63789 9.22191 9.63001 9.14658L9.60001 9.11658ZM9.69601 9.71658C9.79214 10.0841 9.97765 10.4221 10.236 10.7006L10.674 10.2206C10.6642 10.1817 10.6408 10.1477 10.608 10.1246C10.4645 9.99838 10.3283 9.86417 10.2 9.72258C10.1403 9.75093 10.0736 9.76135 10.008 9.75258C9.91173 9.69732 9.80033 9.6742 9.69001 9.68658L9.69601 9.71658ZM14.112 11.3066C13.9927 11.3658 13.8551 11.3765 13.728 11.3366L13.698 11.4026C13.8555 11.4398 14.0205 11.4294 14.172 11.3726L14.106 11.3066H14.112ZM14.712 11.9066L14.46 12.1286C14.4733 12.1857 14.5005 12.2386 14.5392 12.2826C14.578 12.3266 14.627 12.3602 14.682 12.3806C14.677 12.5124 14.6211 12.6371 14.526 12.7286C14.4673 12.9288 14.4252 13.1335 14.4 13.3406C14.7591 13.1428 15.0817 12.885 15.354 12.5786L15.132 12.3566C15.1297 12.4149 15.1062 12.4703 15.066 12.5126C15.0101 12.4876 14.9623 12.4473 14.9283 12.3964C14.8944 12.3454 14.8755 12.2858 14.874 12.2246C15 12.0686 14.748 12.0026 14.682 11.8766L14.712 11.9066ZM8.51401 12.5066H8.48401L8.45401 12.4766C8.4719 12.4939 8.49521 12.5045 8.52001 12.5066H8.51401Z" fill="#424242"/>
<path fill-rule="evenodd" clip-rule="evenodd" d="M15.822 15.7886C15.932 15.7715 16.039 15.7392 16.14 15.6926C17.154 15.4046 18.27 15.3086 19.14 14.6426L19.266 14.5166C19.2156 14.6701 19.1513 14.8187 19.074 14.9606C18.6704 15.4075 18.1378 15.7178 17.55 15.8486C16.848 16.1006 15.996 15.9446 15.264 16.1006L15.57 15.6206L16.302 14.1266L16.968 13.4246C16.7255 14.284 16.3379 15.0957 15.822 15.8246V15.7886Z" fill="#424242"/>
<path fill-rule="evenodd" clip-rule="evenodd" d="M7.40402 13.9166C7.77156 14.3804 8.05208 14.9068 8.23202 15.4706C8.3785 15.6644 8.49575 15.8787 8.58002 16.1066C8.50244 16.0992 8.42703 16.0768 8.35802 16.0406L7.15802 15.9746C6.65328 15.9047 6.16063 15.7653 5.69402 15.5606C5.29415 15.3394 4.9559 15.0218 4.71002 14.6366C5.0427 14.8226 5.39481 14.9715 5.76002 15.0806L7.09202 15.4286C7.26153 15.4593 7.42289 15.5247 7.56602 15.6206C7.77333 15.6992 7.98584 15.7633 8.20202 15.8126C7.69202 15.1106 7.09202 14.4146 7.00202 13.5566C7.15882 13.6362 7.29142 13.7564 7.38602 13.9046L7.40402 13.9166Z" fill="#424242"/>
<path fill-rule="evenodd" clip-rule="evenodd" d="M11.5321 16.2986C11.3761 16.4246 11.1841 16.5206 11.0221 16.6466C10.6482 16.6398 10.275 16.6821 9.91209 16.7726C8.89809 17.0246 7.56009 17.2826 6.64209 16.6466L6.22809 16.3946C6.52727 16.4954 6.8375 16.5599 7.15209 16.5866C7.51475 16.6351 7.88367 16.6023 8.23209 16.4906L9.43209 16.1066C10.1345 15.9432 10.8709 16.0105 11.5321 16.2986Z" fill="#424242"/>
<path fill-rule="evenodd" clip-rule="evenodd" d="M16.2661 16.5206C16.7723 16.5891 17.2876 16.5229 17.7601 16.3286C17.104 16.8745 16.2581 17.1378 15.4081 17.0606C14.3941 16.8686 13.4401 16.4606 12.3601 16.6466C11.8414 16.7455 11.3526 16.9632 10.9321 17.2826C10.6945 17.4777 10.4719 17.6903 10.2661 17.9186C10.1864 17.8409 10.0867 17.7869 9.97809 17.7626C11.1781 16.6166 12.5221 15.8546 14.1781 16.1426C14.8561 16.3193 15.5459 16.4477 16.2421 16.5266L16.2661 16.5206Z" fill="#424242"/>
<path fill-rule="evenodd" clip-rule="evenodd" d="M13.98 17.8226C13.8894 17.869 13.7923 17.9013 13.692 17.9186C13.3414 17.5467 12.9578 17.2073 12.546 16.9046C12.642 16.8386 12.738 16.8746 12.834 16.8086C13.245 17.1124 13.6285 17.4517 13.98 17.8226Z" fill="#424242"/>
<path d="M6.08998 23.7926L5.03998 19.1246H5.90398L6.30598 21.2126C6.40798 21.7826 6.50398 22.3526 6.57598 22.8506C6.64798 22.3286 6.76198 21.7886 6.89398 21.2006L7.35598 19.1186H8.16598L8.59198 21.2246C8.69998 21.7706 8.80198 22.2926 8.86798 22.8386C8.94598 22.2866 9.04198 21.7586 9.14998 21.2006L9.59998 19.1246H10.422L9.28198 23.7866H8.44198L7.99798 21.6866C7.88588 21.1937 7.80174 20.6949 7.74598 20.1926C7.6721 20.6975 7.57196 21.1981 7.44598 21.6926L6.95398 23.7806H6.08998V23.7926Z" fill="#424242"/>
<path d="M11.8139 19.1246V21.0206H13.5299V19.1246H14.3459V23.7866H13.5359V21.7346H11.8139V23.7926H10.9979V19.1246H11.8139Z" fill="#424242"/>
<path d="M16.9679 23.8586C15.7679 23.8586 15.0419 22.8566 15.0419 21.4586C15.0419 20.0606 15.8279 19.0586 17.0339 19.0586C18.2399 19.0586 18.9599 20.0966 18.9599 21.4106C18.9599 23.0306 18.1139 23.8586 16.9739 23.8586H16.9679ZM17.0099 23.1866C17.7299 23.1866 18.1019 22.3946 18.1019 21.4346C18.1019 20.5706 17.7539 19.7246 17.0099 19.7246C16.2659 19.7246 15.8999 20.5466 15.8999 21.4646C15.8999 22.3826 16.2779 23.1866 16.9979 23.1866H17.0099Z" fill="#424242"/>
</svg>
